<?xml version="1.0" standalone="no"?>
<!DOCTYPE svg PUBLIC "-//W3C//DTD SVG 20010904//EN"
 "http://www.w3.org/TR/2001/REC-SVG-20010904/DTD/svg10.dtd">
<svg version="1.0" xmlns="http://www.w3.org/2000/svg"
 width="1080.000000pt" height="1080.000000pt" viewBox="0 0 1080.000000 1080.000000"
 preserveAspectRatio="xMidYMid meet">

<g transform="translate(0.000000,1080.000000) scale(0.100000,-0.100000)"
fill="#000000" stroke="none">
<path d="M4700 10641 c-95 -32 -181 -71 -239 -108 -253 -161 -430 -431 -495
-753 -19 -95 -27 -188 -17 -195 14 -8 178 52 280 104 223 112 395 282 491 483
57 121 81 226 83 366 l2 117 -25 2 c-14 1 -50 -6 -80 -16z"/>
<path d="M5995 10613 c-8 -61 10 -217 35 -311 68 -247 271 -477 544 -614 108
-55 225 -98 263 -98 22 0 23 2 17 58 -3 31 -14 98 -24 148 -84 416 -369 742
-742 848 -83 24 -85 23 -93 -31z"/>
<path d="M5370 10397 c-52 -26 -52 -106 0 -135 35 -20 37 -41 19 -168 -13 -95
-33 -148 -67 -174 -56 -44 -111 -9 -168 105 l-37 74 27 31 c14 17 26 36 26 41
0 22 -23 50 -47 60 -67 25 -106 -73 -43 -109 27 -16 30 -21 30 -72 0 -30 -5
-73 -11 -95 -13 -46 -68 -105 -98 -105 -27 0 -92 59 -128 116 -15 24 -31 44
-35 44 -8 0 -3 -14 65 -190 l44 -115 458 0 459 0 61 159 c50 132 64 160 85
168 46 17 54 58 16 83 -45 30 -91 -16 -61 -61 16 -24 15 -27 -15 -74 -39 -60
-113 -130 -139 -130 -58 0 -110 97 -111 204 l-1 51 -36 -70 c-65 -129 -120
-163 -177 -110 -36 33 -52 75 -65 168 -18 128 -15 149 22 172 81 51 12 176
-73 132z"/>
<path d="M3829 10231 c-73 -28 -151 -85 -228 -167 -103 -107 -175 -228 -234
-389 -34 -95 -44 -141 -58 -272 -12 -118 -8 -163 15 -163 24 0 157 95 238 169
137 127 240 286 299 461 38 113 52 290 28 347 l-14 31 -46 -17z"/>
<path d="M6909 10208 c-23 -84 5 -301 50 -393 6 -11 21 -45 34 -75 57 -130
196 -300 325 -399 92 -69 166 -113 175 -104 17 17 -1 225 -29 338 -60 239
-212 478 -376 593 -40 27 -148 82 -163 82 -2 0 -9 -19 -16 -42z"/>
<path d="M5683 10230 c-41 -17 -42 -89 -1 -111 46 -25 98 20 85 74 -5 18 -47
51 -60 46 -1 0 -12 -4 -24 -9z"/>
<path d="M4770 10110 c-25 -25 -25 -42 -2 -63 34 -31 82 -12 82 32 0 14 -37
51 -50 51 -5 0 -19 -9 -30 -20z"/>
<path d="M3105 9920 c-34 -13 -124 -100 -169 -164 -76 -107 -120 -207 -157
-361 -29 -120 -32 -362 -7 -476 20 -87 27 -109 37 -109 16 0 143 141 190 211
155 232 227 549 173 765 -30 118 -43 144 -67 134z"/>
<path d="M7652 9867 c-77 -205 -38 -512 95 -755 74 -135 231 -318 253 -296 5
5 17 45 27 89 22 99 24 357 5 460 -20 101 -77 247 -135 343 -54 89 -174 212
-206 212 -14 0 -25 -14 -39 -53z"/>
<path d="M4982 9645 c8 -18 8 -28 0 -38 -7 -8 -9 -17 -5 -20 9 -10 873 -9 873
1 0 4 -5 13 -12 20 -9 9 -9 18 0 37 l12 25 -440 0 -440 0 12 -25z"/>
<path d="M4907 9552 c-8 -10 -8 -19 0 -30 9 -15 56 -17 507 -20 453 -2 497 -1
503 14 17 45 17 45 -505 47 -401 2 -496 -1 -505 -11z"/>
<path d="M2385 9511 c-119 -158 -161 -319 -152 -588 4 -125 10 -178 31 -257
27 -106 128 -326 149 -326 21 1 99 180 134 309 39 144 54 289 42 424 -8 97
-46 242 -80 308 -25 50 -86 146 -96 152 -5 3 -17 -7 -28 -22z"/>
<path d="M4065 9519 c-40 -12 -388 -189 -505 -257 -425 -249 -791 -587 -1051
-972 -222 -329 -350 -615 -473 -1050 -23 -85 -63 -310 -80 -460 -22 -189 -21
-444 4 -632 33 -259 57 -363 142 -628 51 -160 212 -506 297 -640 9 -14 21 -33
26 -42 126 -218 352 -499 553 -688 202 -191 279 -249 575 -438 79 -50 384
-197 507 -245 249 -96 441 -149 810 -227 393 -82 392 -81 374 -101 -8 -9 -43
-34 -77 -55 -131 -81 -264 -210 -327 -320 -38 -66 -89 -189 -96 -236 -5 -31
-3 -38 19 -53 43 -28 56 -17 93 80 69 185 133 277 252 368 68 52 203 130 255
148 46 16 78 6 192 -59 214 -123 306 -229 386 -447 39 -107 51 -119 94 -91 31
20 31 35 0 126 -68 200 -213 374 -412 494 -59 35 -80 53 -71 61 4 5 253 60
407 91 582 117 1030 292 1430 558 211 141 298 212 487 401 310 308 515 609
722 1055 116 252 198 545 238 855 23 178 25 224 21 415 -8 369 -60 655 -183
1004 -194 553 -541 1054 -974 1406 -105 86 -300 230 -320 238 -8 3 -28 15 -45
26 -90 65 -568 311 -622 321 -47 9 -43 -16 7 -49 22 -14 42 -26 46 -26 3 0 18
-8 32 -18 15 -11 99 -56 187 -101 88 -46 204 -111 258 -145 54 -33 113 -70
131 -81 52 -32 183 -132 289 -222 220 -186 458 -455 592 -668 20 -33 48 -76
62 -96 13 -21 47 -79 74 -130 294 -553 410 -1010 396 -1557 -12 -467 -109
-851 -335 -1322 -52 -109 -175 -320 -224 -385 -4 -5 -34 -46 -67 -91 -313
-431 -786 -801 -1341 -1051 -253 -114 -534 -197 -820 -243 -41 -7 -127 -23
-190 -36 -386 -81 -397 -82 -570 -50 -74 14 -178 35 -230 46 -52 11 -148 29
-214 41 -368 62 -626 146 -956 309 -134 66 -318 173 -406 236 -41 30 -77 54
-80 54 -7 0 -119 85 -184 140 -226 190 -466 445 -567 604 -14 22 -30 44 -35
50 -18 22 -101 153 -135 215 -210 381 -331 735 -398 1161 -22 139 -31 501 -16
656 30 303 116 637 227 881 8 17 14 34 14 38 0 5 50 107 158 320 23 44 137
228 179 288 91 128 237 302 349 412 252 251 496 428 847 614 294 156 327 176
327 197 0 16 -11 16 -55 3z"/>
<path d="M8345 9475 c-46 -69 -79 -145 -108 -243 -19 -68 -22 -99 -21 -267 0
-175 2 -198 28 -289 41 -149 101 -292 137 -330 25 -27 135 211 168 365 34 155
32 393 -4 534 -28 107 -122 285 -152 285 -6 0 -28 -25 -48 -55z"/>
<path d="M4911 9481 c-8 -5 -11 -16 -8 -25 6 -15 55 -16 509 -14 495 3 503 3
503 23 0 20 -7 20 -495 22 -276 2 -501 -1 -509 -6z"/>
<path d="M4185 9363 c-175 -37 -272 -73 -399 -150 -93 -56 -185 -130 -186
-149 0 -14 53 -38 141 -63 315 -88 702 -12 895 174 36 35 64 71 64 82 0 26
-110 78 -206 98 -63 13 -260 19 -309 8z"/>
<path d="M6345 9364 c-11 -3 -40 -10 -65 -16 -81 -19 -180 -69 -180 -90 0 -11
30 -48 67 -83 192 -183 567 -259 878 -179 79 21 155 54 155 68 0 34 -203 171
-335 226 -138 57 -206 71 -360 75 -77 2 -149 2 -160 -1z"/>
<path d="M1864 8944 c-43 -97 -58 -178 -57 -314 1 -258 84 -486 260 -715 52
-67 67 -68 87 -8 45 134 63 331 47 488 -26 240 -92 403 -214 530 -40 41 -78
75 -85 75 -7 0 -24 -25 -38 -56z"/>
<path d="M8828 8943 c-208 -199 -290 -607 -197 -978 26 -101 33 -114 56 -99
27 16 116 139 167 229 57 102 122 294 137 410 13 102 7 254 -15 330 -19 71
-63 165 -76 165 -6 0 -39 -26 -72 -57z"/>
<path d="M7150 8809 c-73 -6 -176 -34 -185 -49 -11 -17 44 -99 107 -162 104
-103 260 -187 423 -229 166 -41 514 -34 523 11 3 20 -106 139 -187 204 -204
162 -456 245 -681 225z"/>
<path d="M3390 8789 c-157 -40 -274 -96 -401 -189 -83 -62 -211 -197 -207
-218 9 -47 364 -55 528 -13 94 25 243 91 316 142 109 75 232 225 206 251 -6 6
-41 19 -78 29 -93 26 -261 25 -364 -2z"/>
<path d="M1551 8168 c-12 -35 -26 -102 -33 -149 -25 -192 51 -469 186 -673 67
-102 195 -231 212 -214 9 9 34 159 40 242 4 45 1 128 -5 186 -34 286 -141 515
-299 635 -64 50 -76 47 -101 -27z"/>
<path d="M9138 8186 c-134 -109 -237 -311 -279 -546 -26 -147 -11 -446 25
-496 10 -13 16 -12 49 14 140 112 279 352 327 567 28 124 31 287 6 390 -31
131 -45 139 -128 71z"/>
<path d="M3009 8199 c-163 -24 -353 -141 -504 -310 -96 -108 -252 -404 -231
-438 7 -11 122 8 181 30 206 77 308 141 450 284 92 92 118 125 158 202 45 87
80 202 69 231 -5 13 -38 14 -123 1z"/>
<path d="M7670 8176 c0 -71 59 -213 128 -306 62 -84 214 -224 282 -260 14 -7
27 -16 30 -20 3 -4 48 -28 100 -53 89 -42 216 -82 285 -89 27 -3 30 0 28 24
-1 14 -18 64 -38 110 -111 252 -293 452 -505 553 -95 45 -158 63 -242 69 l-68
5 0 -33z"/>
<path d="M7914 7549 c-68 -75 -213 -94 -499 -64 -440 46 -893 21 -1154 -65
-293 -95 -470 -285 -437 -465 10 -52 78 -117 147 -141 80 -27 222 -25 319 5
174 54 330 164 366 256 52 138 -57 228 -239 197 -75 -13 -205 -69 -284 -123
-78 -52 -183 -139 -183 -151 0 -12 4 -9 114 75 89 68 218 139 295 161 108 32
242 11 270 -42 47 -88 -54 -218 -234 -303 -147 -68 -289 -86 -407 -49 -132 40
-171 136 -109 266 65 138 221 242 445 299 222 56 465 57 856 5 311 -42 497
-46 585 -11 78 31 223 171 177 171 -5 0 -17 -9 -28 -21z"/>
<path d="M4210 7524 c-211 -26 -371 -73 -538 -159 -307 -157 -502 -429 -453
-632 36 -151 213 -248 414 -228 143 14 336 87 468 176 226 152 297 368 157
470 -117 84 -322 51 -525 -84 -119 -80 -292 -264 -281 -299 2 -5 16 8 31 30
101 154 329 317 498 357 125 29 203 16 275 -48 40 -35 44 -43 44 -85 -1 -129
-128 -267 -345 -373 -156 -75 -258 -102 -390 -103 -105 -1 -114 1 -177 32
-155 76 -188 207 -99 387 90 183 281 337 543 439 269 105 619 125 895 51 89
-23 187 -62 231 -91 22 -15 22 -15 -55 -73 -193 -143 -390 -344 -642 -655
-309 -381 -423 -484 -637 -579 -125 -55 -301 -72 -419 -42 -112 30 -207 100
-191 142 6 14 9 13 27 -5 27 -30 63 -28 89 5 38 49 4 123 -56 123 -57 0 -103
-66 -89 -128 9 -42 61 -100 114 -127 199 -100 522 -55 789 111 180 113 300
236 524 537 267 358 390 501 524 608 l65 52 24 -23 c39 -37 76 -96 85 -136 13
-56 -7 -150 -46 -225 -72 -136 -222 -265 -363 -310 l-70 -23 -40 37 c-47 42
-83 54 -117 38 -30 -13 -32 -51 -3 -77 15 -13 36 -18 80 -19 66 -1 79 -10 79
-58 0 -46 -22 -76 -150 -202 -139 -138 -182 -198 -184 -255 -1 -58 58 -110
127 -110 42 0 121 29 184 67 87 53 224 163 217 175 -3 5 -22 -6 -42 -24 -53
-47 -170 -124 -238 -155 -70 -32 -150 -41 -178 -20 -34 25 -12 62 114 188 147
147 185 214 178 306 -3 32 -8 65 -12 74 -6 13 9 19 80 37 186 46 354 156 419
274 27 48 30 61 30 148 0 85 -3 101 -29 151 -15 31 -48 80 -72 107 l-45 51 57
36 c32 20 81 49 111 63 29 14 53 32 53 40 0 18 -8 15 -136 -57 -58 -34 -109
-61 -112 -61 -4 0 -40 17 -82 39 -87 45 -175 75 -280 96 -73 15 -361 27 -430
19z m350 -876 l35 -23 -34 -3 c-51 -5 -81 5 -81 28 0 27 35 26 80 -2z"/>
<path d="M2757 7479 c-185 -44 -390 -225 -506 -448 -90 -173 -165 -471 -118
-471 36 0 242 116 305 172 189 168 307 343 347 513 19 83 32 245 19 244 -5 -1
-26 -5 -47 -10z"/>
<path d="M7997 7483 c-10 -10 -8 -89 4 -163 34 -215 161 -419 364 -589 69 -58
272 -171 307 -171 17 0 1 137 -27 236 -53 181 -158 367 -275 484 -93 94 -220
174 -305 194 -16 4 -37 9 -46 12 -8 2 -18 1 -22 -3z"/>
<path d="M7194 7332 c-17 -15 -93 -81 -169 -147 -183 -159 -299 -289 -525
-590 -256 -343 -380 -457 -588 -544 -219 -91 -565 -52 -625 71 -19 39 -16 45
15 24 34 -24 66 -19 100 14 36 36 33 71 -9 109 -22 19 -34 22 -66 18 -80 -11
-114 -80 -79 -160 53 -120 273 -181 517 -143 311 48 584 217 790 491 33 44
110 159 170 255 153 245 263 387 401 518 64 62 112 112 108 112 -5 0 -23 -13
-40 -28z"/>
<path d="M9345 7322 c-27 -15 -86 -63 -131 -107 -121 -121 -195 -259 -251
-469 -24 -91 -27 -119 -28 -278 0 -97 4 -180 8 -184 11 -11 45 11 124 81 167
146 294 348 350 555 31 114 20 432 -15 429 -4 0 -29 -12 -57 -27z"/>
<path d="M1385 7328 c-11 -35 -25 -138 -25 -192 0 -239 105 -487 289 -688 64
-69 181 -168 199 -168 19 0 25 68 19 224 -8 244 -70 439 -192 611 -96 135
-272 264 -290 213z"/>
<path d="M2519 6645 c-105 -77 -225 -267 -265 -420 -40 -156 -54 -345 -34
-475 16 -101 43 -202 57 -207 24 -9 142 134 208 252 113 201 167 436 145 632
-5 48 -14 105 -20 127 -10 33 -48 116 -54 116 -1 0 -18 -11 -37 -25z"/>
<path d="M8240 6669 c0 -2 -14 -37 -30 -78 -99 -241 -26 -625 171 -900 56 -78
140 -164 150 -154 16 16 49 192 56 297 7 115 -8 258 -38 380 -35 138 -135 314
-225 397 -29 27 -84 64 -84 58z"/>
<path d="M1365 6380 c-10 -16 -7 -170 5 -230 52 -275 281 -569 547 -704 29
-14 57 -26 63 -26 6 0 10 26 10 60 0 164 -93 440 -202 598 -48 70 -158 181
-221 224 -89 60 -189 99 -202 78z"/>
<path d="M9382 6379 c-64 -19 -165 -82 -233 -145 -166 -155 -283 -384 -324
-639 -21 -125 -20 -175 3 -175 33 1 208 119 294 200 48 45 113 117 143 161 71
100 142 249 160 336 21 103 28 214 16 246 -11 30 -11 29 -59 16z"/>
<path d="M2637 5812 c-33 -36 -89 -167 -107 -251 -24 -106 -26 -283 -5 -403
15 -85 56 -216 95 -300 28 -59 110 -188 120 -188 21 0 114 282 129 394 15 105
13 275 -3 368 -22 122 -87 278 -139 333 -11 11 -26 30 -34 43 -18 27 -34 28
-56 4z"/>
<path d="M8091 5785 c-51 -54 -114 -184 -142 -292 -40 -154 -35 -388 12 -561
38 -136 92 -267 108 -258 4 3 33 47 64 98 59 97 116 247 143 370 19 90 22 299
5 388 -22 113 -101 285 -137 297 -6 2 -29 -17 -53 -42z"/>
<path d="M1363 5424 c-16 -43 61 -195 148 -289 38 -42 150 -135 194 -162 156
-97 328 -153 518 -168 90 -7 92 -4 51 78 -64 126 -209 295 -336 391 -71 53
-220 125 -306 147 -98 25 -260 27 -269 3z"/>
<path d="M9164 5420 c-147 -38 -310 -138 -437 -267 -99 -101 -227 -291 -227
-338 0 -34 260 5 403 61 246 96 446 278 523 475 23 60 26 72 13 80 -25 16
-199 9 -275 -11z"/>
<path d="M3020 5171 c-69 -137 -76 -384 -14 -577 52 -165 152 -341 263 -464
35 -40 52 -52 60 -44 6 6 21 42 32 80 26 87 37 322 20 433 -41 263 -153 483
-297 582 l-43 30 -21 -40z"/>
<path d="M7704 5172 c-48 -36 -81 -72 -127 -138 -49 -72 -62 -98 -101 -215
-52 -158 -60 -214 -59 -409 1 -147 4 -186 22 -244 27 -89 34 -96 67 -65 57 51
167 213 219 321 82 169 108 279 109 458 0 136 -2 150 -30 230 -18 51 -36 86
-45 88 -8 1 -33 -10 -55 -26z"/>
<path d="M3522 4733 c-14 -31 -17 -67 -17 -188 1 -149 1 -151 42 -270 74 -217
203 -402 375 -538 65 -51 75 -49 84 20 11 90 -3 309 -25 393 -31 119 -78 237
-129 324 -56 96 -184 229 -260 269 l-52 28 -18 -38z"/>
<path d="M7213 4745 c-64 -32 -178 -141 -230 -220 -146 -219 -214 -494 -186
-754 3 -38 11 -65 19 -68 15 -5 81 44 162 121 98 93 220 284 267 416 43 123
57 212 52 335 -3 66 -11 137 -19 158 l-13 37 -52 -25z"/>
<path d="M1835 4724 c-38 -6 -125 -34 -125 -40 0 -15 49 -97 86 -144 90 -114
227 -208 390 -268 122 -45 184 -58 311 -68 78 -5 238 8 251 21 7 7 -43 77
-109 151 -134 152 -338 278 -529 328 -66 17 -220 28 -275 20z"/>
<path d="M8767 4720 c-261 -47 -506 -203 -676 -430 -23 -30 -41 -57 -41 -61 0
-10 37 -17 130 -24 267 -21 579 88 763 268 69 68 150 182 145 205 -7 34 -215
62 -321 42z"/>
<path d="M4090 4293 c0 -248 175 -533 435 -710 95 -64 241 -133 282 -133 19 0
13 52 -22 187 -58 222 -202 436 -384 571 -82 60 -209 121 -272 129 l-39 6 0
-50z"/>
<path d="M6615 4321 c-180 -66 -297 -158 -439 -343 -85 -113 -170 -326 -189
-476 -7 -57 4 -60 90 -26 336 135 613 473 630 771 l6 93 -24 0 c-13 -1 -46 -9
-74 -19z"/>
<path d="M2370 4070 c-71 -15 -186 -60 -204 -79 -15 -17 -14 -21 18 -62 57
-71 135 -129 241 -179 160 -75 209 -85 430 -85 168 0 199 3 268 23 44 12 92
29 109 38 l30 16 -33 35 c-55 57 -197 153 -294 199 -131 62 -265 95 -405 100
-63 1 -135 -1 -160 -6z"/>
<path d="M8144 4066 c-208 -40 -411 -140 -553 -272 l-56 -52 48 -21 c119 -52
278 -72 465 -59 133 9 202 28 341 95 99 48 124 65 188 130 40 41 73 81 73 87
0 17 -63 50 -145 76 -89 28 -259 35 -361 16z"/>
<path d="M3230 3583 c-231 -11 -466 -91 -594 -204 -49 -44 -47 -49 56 -102
229 -117 609 -107 936 25 105 43 252 124 259 144 5 14 -29 29 -157 70 -159 52
-327 74 -500 67z"/>
<path d="M7380 3580 c-181 -15 -486 -106 -466 -139 12 -18 187 -111 276 -146
141 -55 262 -82 460 -100 81 -8 245 9 342 36 70 20 190 78 204 100 10 17 -44
66 -127 115 -179 105 -434 154 -689 134z"/>
<path d="M4012 3273 c-188 -22 -330 -77 -457 -176 -65 -50 -138 -134 -132
-150 3 -8 30 -23 61 -35 262 -100 584 -48 853 137 85 58 183 145 183 161 0 19
-220 65 -345 72 -33 2 -106 -2 -163 -9z"/>
<path d="M6585 3279 c-132 -13 -305 -51 -305 -68 0 -15 110 -112 187 -164 170
-116 385 -187 569 -187 133 0 335 54 342 91 5 26 -138 162 -210 200 -164 87
-206 101 -357 119 -137 16 -142 17 -226 9z"/>
<path d="M7112 2250 c-37 -30 -84 -34 -270 -20 -378 29 -628 -29 -707 -164
-34 -58 -33 -100 4 -137 16 -16 38 -29 48 -29 12 0 7 6 -15 17 -41 20 -56 46
-48 88 17 86 117 160 258 189 103 21 196 20 396 -5 92 -11 189 -18 216 -15 53
6 118 42 136 76 13 25 11 25 -18 0z"/>
<path d="M3938 2243 c23 -2 61 -2 85 0 23 2 4 4 -43 4 -47 0 -66 -2 -42 -4z"/>
<path d="M3810 2230 c-17 -6 -9 -7 25 -3 28 3 52 7 54 9 8 7 -54 2 -79 -6z"/>
<path d="M4081 2236 c2 -2 22 -6 44 -9 28 -5 34 -4 20 3 -19 8 -73 14 -64 6z"/>
<path d="M4344 2200 l-51 -30 -49 25 c-27 14 -56 25 -64 25 -8 0 12 -13 44
-28 l59 -28 -65 -51 c-83 -67 -171 -161 -291 -310 -119 -149 -203 -228 -283
-265 -52 -24 -87 -32 -205 -43 -78 -8 -170 -22 -203 -30 -181 -47 -288 -147
-290 -272 0 -38 5 -60 20 -80 27 -37 82 -73 108 -73 13 1 6 6 -19 15 -50 18
-95 66 -95 102 0 68 75 168 174 232 95 62 154 81 285 92 144 11 214 29 303 76
93 49 174 130 298 298 108 147 250 300 272 293 27 -9 60 -72 55 -105 -11 -68
-66 -147 -137 -196 l-25 -18 25 7 c14 4 49 22 78 41 94 60 115 149 55 237 -15
23 -28 45 -28 49 0 4 23 21 50 37 28 16 46 30 40 30 -5 0 -33 -14 -61 -30z"/>
<path d="M3664 2176 c-84 -40 -184 -130 -214 -191 -42 -86 -21 -173 51 -210
73 -38 171 -28 295 31 190 90 230 270 62 280 l-53 3 46 -7 c92 -15 121 -60 84
-131 -39 -76 -228 -171 -339 -171 -50 0 -118 30 -140 61 -39 56 0 166 86 244
28 25 87 64 132 85 45 22 76 40 71 40 -6 0 -42 -15 -81 -34z"/>
<path d="M6663 2045 c-63 -60 -145 -153 -222 -252 -117 -153 -158 -196 -231
-240 -49 -29 -134 -53 -199 -55 -53 -1 -54 -2 -11 -5 65 -6 167 14 237 48 124
59 206 146 343 364 30 49 86 121 123 161 38 41 67 74 65 74 -2 0 -49 -43 -105
-95z"/>
<path d="M6435 2120 c46 -8 75 -29 75 -54 0 -21 -39 -74 -73 -100 -19 -15 -59
-35 -88 -46 -30 -11 -45 -19 -34 -20 36 0 139 56 173 94 59 67 35 125 -55 132
l-48 3 50 -9z"/>
<path d="M6304 2095 c-47 -24 -144 -95 -130 -95 4 0 31 18 61 41 29 22 75 49
102 59 26 11 41 19 32 20 -8 0 -37 -11 -65 -25z"/>
<path d="M5900 2063 c-46 -27 -122 -96 -270 -244 -113 -114 -233 -227 -268
-252 -66 -48 -123 -73 -147 -63 -38 14 2 95 48 97 18 1 19 2 4 6 -15 4 -11 11
24 41 71 62 103 75 112 47 4 -11 4 -10 3 2 -4 47 -107 5 -196 -80 -31 -28 -49
-47 -40 -40 14 11 15 8 12 -22 -12 -99 76 -83 227 40 l83 67 -36 -52 c-49 -71
-46 -121 9 -119 19 0 19 1 -2 9 -13 5 -23 16 -23 24 0 28 176 233 223 259 25
14 27 16 7 11 -19 -5 -7 12 54 80 164 180 286 261 286 191 0 -47 -133 -165
-258 -229 -19 -10 -32 -20 -29 -22 3 -3 38 14 78 39 135 82 222 169 217 217
-5 39 -43 37 -118 -7z"/>
<path d="M3722 2055 c-54 -25 -182 -142 -182 -166 0 -6 13 6 29 28 44 61 134
125 221 156 13 5 13 5 0 6 -8 0 -39 -10 -68 -24z"/>
<path d="M6228 1893 c12 -2 32 -2 45 0 12 2 2 4 -23 4 -25 0 -35 -2 -22 -4z"/>
<path d="M4031 1836 c-10 -12 -8 -17 9 -26 11 -6 31 -10 43 -8 18 2 23 -3 25
-26 3 -24 -7 -40 -56 -90 -103 -106 -123 -146 -87 -176 13 -10 15 -9 15 10 0
13 25 50 65 92 91 98 105 163 46 214 -30 27 -44 29 -60 10z m50 -12 c11 -14
10 -15 -11 -12 -13 1 -25 9 -28 16 -5 17 23 15 39 -4z"/>
<path d="M6804 1735 c-4 -8 -4 -21 -1 -29 4 -9 -17 -36 -53 -70 -32 -31 -55
-56 -52 -56 13 0 122 105 122 117 0 6 5 13 12 15 14 5 3 38 -12 38 -6 0 -13
-7 -16 -15z"/>
<path d="M7034 1735 c-4 -8 -4 -21 -1 -29 3 -7 -14 -32 -39 -57 -24 -24 -44
-47 -44 -51 0 -4 23 14 50 40 28 26 50 53 50 59 0 6 5 13 12 15 14 5 3 38 -12
38 -6 0 -13 -7 -16 -15z"/>
<path d="M7485 1686 c-50 -48 -52 -51 -11 -17 27 23 52 41 56 41 11 0 -7 -85
-24 -117 -19 -37 -54 -69 -96 -87 -24 -11 -29 -15 -15 -16 39 0 90 21 123 50
l33 30 -3 87 -3 87 -60 -58z"/>
<path d="M4338 1710 c-45 -13 -95 -48 -135 -94 -49 -55 -112 -96 -171 -112
-31 -8 -38 -13 -22 -13 28 -1 124 41 134 58 13 20 25 11 28 -21 3 -29 7 -33
33 -35 20 -1 23 0 8 4 -38 8 -28 44 31 109 82 91 176 132 176 77 0 -27 -56
-90 -123 -139 -33 -24 -56 -44 -52 -44 4 0 30 17 57 37 41 30 48 32 39 14 -7
-12 -9 -31 -6 -41 6 -20 39 -27 49 -11 4 5 -3 7 -14 4 -11 -3 -20 -1 -20 4 0
14 49 80 108 144 49 54 51 57 29 63 -15 4 -27 -1 -37 -14 -15 -20 -15 -20 -28
0 -13 21 -38 24 -84 10z"/>
<path d="M4644 1699 c-28 -11 -76 -41 -106 -67 -30 -26 -74 -64 -99 -86 l-44
-38 48 37 47 36 0 -33 c0 -39 15 -58 44 -57 20 0 20 1 -1 9 -37 15 -27 40 41
106 68 67 137 109 167 101 11 -3 17 -1 13 4 -9 14 -55 10 -110 -12z"/>
<path d="M6592 1689 c-74 -37 -122 -94 -122 -144 0 -46 21 -61 68 -47 38 12
136 86 147 111 3 8 -17 -7 -45 -33 -125 -117 -210 -87 -92 32 63 65 114 96
144 89 12 -4 18 -1 15 6 -7 23 -53 17 -115 -14z"/>
<path d="M7295 1696 c-27 -14 -77 -53 -110 -88 -33 -34 -52 -56 -42 -49 15 12
17 10 17 -17 0 -40 21 -56 64 -48 39 7 138 70 176 112 14 15 -4 4 -39 -24 -68
-55 -140 -88 -166 -79 -38 15 2 96 48 98 18 0 19 2 5 7 -14 6 -6 16 40 55 60
50 87 58 96 30 4 -14 4 -14 3 2 -3 29 -35 29 -92 1z"/>
<path d="M4780 1693 c-14 -10 -34 -28 -44 -41 -29 -37 -93 -93 -139 -124 -45
-30 -44 -39 1 -11 15 9 -36 -47 -113 -125 -133 -136 -138 -142 -109 -142 26 0
43 12 96 69 38 41 96 87 143 116 101 62 237 158 256 181 7 10 -6 2 -31 -17
-47 -38 -197 -137 -240 -159 -24 -12 6 22 175 198 54 55 65 72 49 72 -11 0
-31 -8 -44 -17z"/>
<path d="M4930 1670 c-25 -21 -41 -39 -36 -40 4 0 -3 -15 -16 -32 -34 -44 -41
-70 -25 -92 19 -25 69 -13 116 28 20 17 45 38 56 46 19 15 19 14 2 -10 -22
-31 -22 -69 -1 -77 19 -7 75 21 101 50 10 11 -1 6 -26 -11 -46 -34 -71 -40
-71 -19 0 6 30 46 68 88 102 114 99 109 70 109 -16 0 -51 -25 -108 -80 -93
-88 -162 -135 -185 -126 -27 10 -16 27 72 117 83 85 85 89 57 89 -20 0 -44
-13 -74 -40z m0 -14 c0 -2 -8 -10 -17 -17 -16 -13 -17 -12 -4 4 13 16 21 21
21 13z"/>
<path d="M6870 1691 c0 -4 -22 -33 -50 -62 -60 -66 -78 -102 -60 -124 7 -8 22
-14 34 -14 20 2 20 2 -1 6 -13 2 -23 9 -23 14 0 5 32 43 71 84 60 63 69 77 59
90 -14 16 -30 20 -30 6z"/>
<path d="M7052 1634 c-66 -81 -79 -108 -62 -129 7 -8 22 -15 34 -14 20 0 20 1
-3 10 -23 9 -23 10 -5 32 10 12 43 48 73 79 46 49 52 59 41 72 -7 9 -15 16
-19 15 -3 0 -30 -29 -59 -65z"/>
<path d="M6838 1683 c7 -3 16 -2 19 1 4 3 -2 6 -13 5 -11 0 -14 -3 -6 -6z"/>
<path d="M5340 1635 c-14 -8 -20 -14 -14 -15 5 0 19 7 30 15 24 18 16 19 -16
0z"/>
<path d="M5846 1637 c-29 -21 -23 -67 13 -99 17 -15 37 -28 44 -28 6 0 -1 9
-17 19 -16 11 -33 27 -38 35 -7 13 -4 15 21 10 23 -5 32 -2 40 14 14 26 14 28
-5 46 -19 19 -35 20 -58 3z"/>
<path d="M7320 1635 c-14 -8 -20 -14 -14 -15 5 0 19 7 30 15 24 18 16 19 -16
0z"/>
<path d="M3325 1616 c-15 -22 -15 -27 -1 -54 14 -28 69 -62 98 -62 7 1 -3 8
-22 16 -43 19 -70 43 -70 62 0 12 3 12 15 2 23 -19 47 -4 43 27 -4 38 -41 43
-63 9z"/>
<path d="M5599 1583 l-24 -28 28 24 c15 14 27 26 27 28 0 8 -8 1 -31 -24z"/>
<path d="M6925 1580 c-4 -6 -30 -26 -58 -45 -28 -19 -48 -35 -44 -35 12 0 91
55 106 74 8 9 11 16 8 16 -3 0 -9 -5 -12 -10z"/>
<path d="M5532 1536 c-46 -33 -53 -43 -14 -20 19 10 38 25 44 32 15 17 8 14
-30 -12z"/>
<path d="M7352 1548 c-5 -7 -7 -21 -3 -31 6 -15 9 -16 25 -4 12 9 17 20 13 31
-8 19 -21 21 -35 4z"/>
<path d="M7080 1525 c-19 -14 -30 -25 -25 -25 6 0 24 11 40 25 39 31 30 31
-15 0z"/>
<path d="M5928 1503 c7 -3 16 -2 19 1 4 3 -2 6 -13 5 -11 0 -14 -3 -6 -6z"/>
<path d="M3539 1465 c76 -22 119 -51 152 -104 l29 -45 -62 -55 c-79 -70 -132
-124 -221 -229 -79 -94 -156 -153 -227 -177 -44 -15 -53 -15 -105 0 -31 9 -58
15 -61 13 -2 -3 15 -11 38 -18 24 -6 45 -16 48 -20 3 -4 25 -10 50 -13 28 -4
35 -3 20 2 -23 7 -20 9 30 25 80 27 165 74 208 115 20 20 64 74 96 121 59 84
171 210 188 210 14 0 9 -115 -7 -160 -8 -24 -13 -45 -11 -47 11 -11 36 99 36
158 l0 68 45 31 c25 17 45 33 45 36 0 6 -5 3 -62 -33 l-38 -23 -14 28 c-33 63
-113 118 -187 127 -43 5 -42 5 10 -10z"/>
<path d="M6515 1470 c71 -8 101 -24 115 -63 19 -56 -20 -105 -249 -317 -68
-63 -137 -132 -153 -154 -32 -45 -37 -96 -10 -117 15 -12 16 -12 4 2 -9 12
-10 24 -3 41 5 14 86 95 180 182 215 197 251 244 251 323 0 72 -56 114 -147
112 l-48 -2 60 -7z"/>
<path d="M6365 1456 c-96 -30 -178 -90 -195 -142 -11 -32 -10 -40 7 -62 11
-14 26 -28 34 -30 8 -3 3 4 -10 15 -69 56 12 156 169 207 41 14 66 25 55 25
-11 0 -38 -6 -60 -13z"/>
<path d="M6770 1189 c-279 -265 -397 -354 -497 -378 -29 -7 -32 -9 -13 -10 55
-2 207 93 339 213 19 17 7 0 -27 -39 -75 -85 -97 -126 -82 -155 13 -24 49 -26
93 -5 38 18 124 85 110 85 -6 0 -17 -7 -24 -16 -22 -27 -112 -74 -141 -74 -64
0 -44 25 256 328 133 133 243 247 244 252 2 6 -5 10 -16 10 -12 0 -107 -83
-242 -211z"/>
<path d="M6505 1329 c-74 -61 -152 -99 -225 -110 -54 -8 -53 -8 13 -4 84 5
162 44 233 116 26 27 46 49 44 48 -3 0 -32 -23 -65 -50z"/>
<path d="M3388 1350 c64 -10 102 -40 102 -82 0 -67 -58 -125 -182 -183 -40
-19 -67 -34 -60 -35 20 0 133 55 170 83 72 55 100 124 71 179 -14 26 -69 48
-116 47 -33 -1 -32 -2 15 -9z"/>
<path d="M7550 1338 c-48 -23 -336 -298 -346 -330 -3 -10 -10 -18 -16 -18 -6
0 -5 7 3 17 10 12 5 11 -17 -4 -17 -12 -37 -30 -45 -40 -7 -10 -1 -7 14 6 15
14 30 22 33 18 3 -3 -28 -41 -69 -84 -68 -70 -73 -79 -55 -86 15 -5 30 1 57
22 40 32 100 96 66 71 -11 -8 12 22 50 68 60 70 81 87 142 117 40 19 73 37 73
40 0 3 -27 -9 -61 -26 -34 -16 -63 -29 -64 -27 -2 2 41 52 97 111 133 143 207
186 228 135 5 -14 9 -17 9 -7 1 19 -18 39 -38 39 -9 0 -36 -10 -61 -22z"/>
<path d="M3252 1321 c-63 -35 -94 -61 -147 -121 -28 -31 -17 -23 34 24 44 41
99 80 135 97 34 15 54 28 46 28 -8 1 -39 -12 -68 -28z"/>
<path d="M5798 1078 c-230 -238 -216 -223 -202 -215 8 5 11 -4 10 -26 -1 -27
3 -32 24 -34 l25 -3 -24 10 -24 10 24 27 c13 15 108 116 212 224 103 109 187
200 187 203 0 3 -8 6 -18 6 -10 0 -102 -86 -214 -202z"/>
<path d="M7560 1224 c-64 -50 -73 -63 -17 -24 42 30 77 61 66 59 -2 0 -24 -16
-49 -35z"/>
<path d="M7464 1154 c-18 -14 -18 -15 4 -4 12 6 22 13 22 15 0 8 -5 6 -26 -11z"/>
<path d="M4226 1101 c-15 -16 -15 -19 -1 -31 13 -11 18 -11 30 1 11 11 11 17
1 31 -12 17 -14 17 -30 -1z"/>
<path d="M3667 1025 c-16 -24 -56 -70 -90 -101 -34 -32 -54 -53 -45 -48 47 26
179 176 166 189 -2 2 -16 -16 -31 -40z"/>
<path d="M3208 1043 c7 -3 16 -2 19 1 4 3 -2 6 -13 5 -11 0 -14 -3 -6 -6z"/>
<path d="M3940 984 c-91 -79 -125 -114 -52 -53 30 24 63 51 74 59 21 14 21 14
14 -25 -16 -83 -55 -133 -124 -156 -22 -7 -20 -8 16 -5 24 2 61 16 82 30 44
29 57 68 46 138 -5 31 -3 45 10 59 31 34 10 19 -66 -47z"/>
<path d="M3123 1033 c15 -2 37 -2 50 0 12 2 0 4 -28 4 -27 0 -38 -2 -22 -4z"/>
<path d="M5154 1025 c-3 -8 -4 -20 -1 -27 2 -7 -16 -35 -42 -63 l-46 -50 50
48 c30 28 60 47 74 47 21 0 19 -4 -24 -52 -64 -74 -74 -130 -23 -127 l23 2
-22 4 c-13 2 -23 7 -23 10 0 3 29 38 63 77 35 39 62 77 60 84 -3 6 -21 12 -40
12 -30 0 -34 2 -23 15 12 15 6 35 -11 35 -5 0 -12 -7 -15 -15z"/>
<path d="M7789 977 c-25 -23 -65 -59 -90 -80 l-44 -38 50 38 c28 20 67 53 88
71 22 18 41 31 44 28 3 -3 0 -28 -7 -56 -14 -58 -64 -115 -114 -129 l-31 -9
28 -1 c32 -1 93 22 119 46 14 13 18 32 18 95 0 43 -3 78 -7 78 -5 0 -29 -19
-54 -43z"/>
<path d="M3763 991 c-52 -24 -123 -94 -124 -123 -3 -52 8 -68 46 -67 16 1 15
2 -5 8 -14 4 -26 14 -28 22 -4 23 36 69 61 70 17 1 18 2 4 6 -14 4 -9 11 25
40 59 49 87 61 99 42 9 -12 10 -12 6 1 -5 22 -37 22 -84 1z"/>
<path d="M4328 991 c-40 -16 -75 -42 -183 -138 -12 -10 -14 -14 -5 -8 8 5 25
18 37 29 l23 19 -2 -37 c-1 -38 12 -56 42 -55 8 0 5 4 -7 9 -35 14 -28 37 33
96 61 60 127 98 155 91 11 -3 17 -1 13 4 -8 14 -55 10 -106 -10z"/>
<path d="M4415 943 c-33 -36 -82 -81 -110 -99 -27 -19 -46 -34 -41 -34 4 0 22
10 39 22 28 19 26 15 -13 -28 -24 -27 -51 -52 -60 -56 -8 -4 -11 -7 -5 -7 13
-1 -81 -96 -128 -128 -20 -14 -35 -28 -33 -30 8 -8 90 53 165 122 39 36 76 65
83 65 6 0 8 3 4 7 -4 4 42 56 101 115 59 59 102 108 96 108 -6 0 -17 2 -25 4
-7 3 -40 -25 -73 -61z"/>
<path d="M4646 1001 c-4 -5 3 -7 14 -4 34 9 23 -9 -61 -93 -73 -74 -79 -83
-60 -89 17 -5 37 8 99 63 89 80 149 122 174 122 30 0 20 -22 -33 -76 -39 -39
-51 -59 -52 -85 -2 -26 2 -34 18 -37 20 -4 20 -4 1 11 -19 14 -17 17 42 79 64
67 73 87 47 108 -21 17 -52 6 -113 -40 l-53 -40 16 31 c13 24 14 34 4 45 -13
16 -35 18 -43 5z"/>
<path d="M4985 986 c-27 -14 -75 -51 -105 -83 -30 -31 -46 -50 -34 -40 20 17
21 16 21 -14 0 -33 16 -49 48 -48 16 1 15 2 -5 8 -14 4 -26 14 -28 22 -4 23
36 69 61 69 16 0 18 3 9 9 -10 6 -4 16 24 40 52 46 83 59 95 40 9 -12 10 -12
6 1 -6 24 -38 23 -92 -4z"/>
<path d="M5574 991 c-53 -24 -110 -75 -121 -109 -14 -41 -2 -77 27 -79 25 -3
25 -3 3 7 -29 12 -29 19 6 66 51 71 136 130 172 121 11 -3 17 -1 13 4 -9 15
-56 10 -100 -10z"/>
<path d="M5884 991 c-22 -10 -69 -47 -105 -82 -35 -34 -54 -55 -42 -45 21 18
22 18 21 -14 -1 -34 15 -50 47 -49 16 1 15 2 -5 8 -14 4 -26 14 -28 22 -4 20
35 69 54 69 8 0 13 4 10 9 -4 5 15 28 40 50 46 40 77 51 87 31 3 -6 4 -5 3 2
-4 20 -37 20 -82 -1z"/>
<path d="M6840 1000 c12 -8 -1 -25 -68 -93 -77 -77 -82 -85 -61 -90 18 -5 39
9 103 65 45 40 88 79 96 87 13 13 13 13 -5 1 -11 -8 -30 -23 -43 -34 l-23 -20
15 35 c15 36 8 59 -18 59 -6 0 -4 -5 4 -10z"/>
<path d="M6944 994 c-18 -15 -18 -15 3 -5 65 32 69 0 7 -59 -25 -25 -50 -56
-55 -69 -12 -30 -3 -61 19 -61 13 0 13 2 -3 14 -18 13 -15 17 43 77 62 64 72
85 50 107 -16 16 -40 15 -64 -4z"/>
<path d="M7268 981 c-25 -16 -49 -34 -52 -40 -4 -5 16 5 45 24 99 68 118 37
34 -55 -30 -33 -55 -69 -55 -79 0 -19 35 -39 47 -27 4 3 1 6 -5 6 -23 0 -12
23 38 77 50 55 61 88 38 111 -19 19 -40 14 -90 -17z"/>
<path d="M7548 1000 c-38 -11 -107 -61 -153 -111 -22 -24 -30 -35 -18 -25 22
18 22 18 21 -12 -1 -37 8 -52 33 -52 25 0 71 23 89 46 8 9 -3 5 -24 -10 -67
-45 -102 -30 -66 28 42 69 143 143 181 133 11 -3 17 -1 13 4 -6 11 -39 10 -76
-1z"/>
<path d="M7605 937 c-50 -61 -59 -77 -57 -104 2 -25 8 -33 22 -33 10 0 22 4
25 10 3 6 -1 7 -9 4 -37 -14 -12 36 55 109 39 42 66 77 61 77 -6 0 -16 2 -24
4 -7 2 -40 -28 -73 -67z"/>
<path d="M4115 968 c-15 -18 -24 -26 -20 -18 5 8 -11 -3 -34 -25 -22 -21 -41
-41 -41 -44 0 -3 16 10 35 29 43 42 46 30 4 -17 -51 -59 -21 -124 36 -78 20
16 20 16 -2 6 -65 -32 -56 1 28 98 64 74 68 81 45 81 -16 0 -34 -12 -51 -32z"/>
<path d="M4609 973 c-13 -16 -12 -17 4 -4 16 13 21 21 13 21 -2 0 -10 -8 -17
-17z"/>
<path d="M6779 973 c-13 -16 -12 -17 4 -4 9 7 17 15 17 17 0 8 -8 3 -21 -13z"/>
<path d="M3795 939 c-16 -10 -25 -19 -19 -19 7 0 22 9 35 20 30 24 23 24 -16
-1z"/>
<path d="M4556 934 c-15 -14 -26 -27 -24 -29 2 -3 17 9 33 25 35 36 30 39 -9
4z"/>
<path d="M6727 935 c-15 -14 -24 -25 -19 -25 5 0 19 11 32 25 30 32 23 32 -13
0z"/>
<path d="M7079 923 l-24 -28 28 24 c15 14 27 26 27 28 0 8 -8 1 -31 -24z"/>
<path d="M5010 930 c-9 -6 -10 -10 -3 -10 6 0 15 5 18 10 8 12 4 12 -15 0z"/>
<path d="M5900 930 c-9 -6 -10 -10 -3 -10 6 0 15 5 18 10 8 12 4 12 -15 0z"/>
<path d="M5279 893 c-13 -16 -12 -17 4 -4 9 7 17 15 17 17 0 8 -8 3 -21 -13z"/>
<path d="M4499 883 c-13 -16 -12 -17 4 -4 9 7 17 15 17 17 0 8 -8 3 -21 -13z"/>
<path d="M2879 870 l-24 -20 24 -20 c13 -11 31 -20 40 -19 9 0 4 5 -11 11 -17
6 -28 17 -28 29 0 19 14 25 75 32 23 3 21 4 -11 6 -29 1 -49 -5 -65 -19z"/>
<path d="M3814 878 c-5 -7 -9 -20 -8 -28 1 -8 2 -20 3 -27 0 -7 8 -10 16 -7
20 8 19 44 -1 44 -14 0 -14 3 -4 15 7 8 10 15 7 15 -2 0 -9 -6 -13 -12z"/>
<path d="M5039 873 c-13 -16 -12 -17 4 -4 16 13 21 21 13 21 -2 0 -10 -8 -17
-17z"/>
<path d="M5935 880 c-4 -6 -30 -24 -58 -40 -29 -16 -47 -30 -41 -30 13 0 100
55 108 69 4 6 5 11 2 11 -3 0 -8 -5 -11 -10z"/>
<path d="M7019 873 c-13 -16 -12 -17 4 -4 9 7 17 15 17 17 0 8 -8 3 -21 -13z"/>
<path d="M3008 873 c7 -3 16 -2 19 1 4 3 -2 6 -13 5 -11 0 -14 -3 -6 -6z"/>
<path d="M3470 850 c-19 -11 -31 -19 -27 -20 11 0 67 29 67 35 0 7 -1 7 -40
-15z"/>
<path d="M4400 824 c-41 -24 -71 -44 -66 -44 13 0 134 69 141 80 8 13 12 15
-75 -36z"/>
<path d="M5229 853 c-13 -16 -12 -17 4 -4 9 7 17 15 17 17 0 8 -8 3 -21 -13z"/>
<path d="M3745 834 c-22 -13 -35 -24 -30 -24 12 0 75 38 75 45 0 6 2 7 -45
-21z"/>
<path d="M5559 843 c-13 -16 -12 -17 4 -4 9 7 17 15 17 17 0 8 -8 3 -21 -13z"/>
<path d="M6979 843 c-13 -16 -12 -17 4 -4 9 7 17 15 17 17 0 8 -8 3 -21 -13z"/>
<path d="M7624 838 l-19 -23 23 19 c12 11 22 21 22 23 0 8 -8 2 -26 -19z"/>
<path d="M7673 849 c-6 -6 -9 -17 -6 -25 7 -18 33 -5 33 17 0 21 -11 24 -27 8z"/>
<path d="M4790 829 c-22 -18 -22 -19 -3 -10 12 6 25 16 28 21 9 15 3 12 -25
-11z"/>
<path d="M5680 829 c-22 -18 -22 -19 -3 -10 12 6 25 16 28 21 9 15 3 12 -25
-11z"/>
<path d="M4960 825 c-14 -8 -20 -14 -14 -15 5 0 19 7 30 15 24 18 16 19 -16 0z"/>
<path d="M3380 820 c-20 -6 -21 -8 -5 -8 11 0 29 3 40 8 25 11 -1 11 -35 0z"/>
<path d="M5520 820 c-9 -6 -10 -10 -3 -10 6 0 15 5 18 10 8 12 4 12 -15 0z"/>
<path d="M3005 810 l-70 -6 65 -1 c36 0 79 3 95 7 26 7 27 8 5 7 -14 0 -56 -3
-95 -7z"/>
<path d="M3258 803 c18 -2 45 -2 60 0 15 2 0 4 -33 4 -33 0 -45 -2 -27 -4z"/>
<path d="M4024 638 l-19 -23 23 19 c21 18 27 26 19 26 -2 0 -12 -10 -23 -22z"/>
<path d="M4004 590 c1 -9 12 -16 26 -17 21 -1 21 -1 3 3 -12 3 -24 11 -26 17
-2 7 -3 5 -3 -3z"/>
</g>
</svg>
